<svg width="48" height="70" viewBox="0 0 48 70" fill="none" xmlns="http://www.w3.org/2000/svg">
<path d="M1.18687 2.09272L3.91772 0.467285L45.474 0.961904L46.8634 2.8971L46.5657 5.22927L42.7449 11.7296L39.6684 18.7757L41.157 20.5124L40.512 21.9514L39.1722 29.6426L41.157 36.1925V38.1773L39.6684 38.9712L41.7029 45.3723L47.5085 59.1171L46.0199 64.4762L43.1915 67.6022L38.676 69.4878L7.86167 68.9916L3.0981 66.1633L1.11328 62.0448V58.1744L6.02571 46.5135L8.50323 38.9461H7.16187L6.19344 37.7889L8.72922 28.7511L6.7136 21.3388V19.5832L8.72922 19.1281L6.19344 13.7314L1.18687 4.88864V2.09272Z" fill="white"/>
<path d="M18.891 28.8148V29.0227C18.891 30.8935 18.1473 34.0901 17.0433 37.8086C16.8262 38.5523 16.0547 39.0697 15.1771 39.0697H8.51604C8.38208 39.0697 8.24812 39.0605 8.11878 39.0374C7.07943 38.848 6.38192 37.9287 6.64984 36.991C7.61989 33.6235 8.25274 30.755 8.25274 29.0273C8.25274 26.8008 7.63837 24.0477 6.68679 21.1006C6.38654 20.1721 7.0471 19.2529 8.05873 19.0312C8.21116 18.9988 8.36822 18.9803 8.53451 18.9803H15.1725C16.027 18.9803 16.7754 19.47 17.0202 20.186C18.1057 23.3918 18.8494 26.3989 18.891 28.8195V28.8148Z" stroke="#222222" stroke-width="1.5" stroke-linecap="round" stroke-linejoin="round"/>
<path d="M39.3268 39.0467C39.2437 39.0559 39.1467 39.0652 39.0589 39.0652H32.6519C31.7742 39.0652 31.0028 38.5478 30.7857 37.8041C29.6817 34.0856 28.938 30.889 28.938 29.0182C28.938 28.8935 28.938 28.7687 28.9426 28.6394C29.0119 26.2512 29.751 23.3041 30.8088 20.1768C31.0536 19.4608 31.802 18.9712 32.6565 18.9712H39.0312C39.1513 18.9712 39.2668 18.9804 39.3822 18.9989C40.4678 19.1698 41.1884 20.126 40.8835 21.0915C39.9366 24.0386 39.313 26.7917 39.313 29.0182C39.313 30.7504 39.9458 33.619 40.9159 36.9819C41.1976 37.9565 40.4354 38.9127 39.3268 39.0467V39.0467Z" stroke="#222222" stroke-width="1.5" stroke-linecap="round" stroke-linejoin="round"/>
<path d="M39.6268 39.1896C41.6547 46.7191 44.6157 51.1813 46.5974 56.937C48.6576 62.9374 44.1907 69.1781 37.8253 69.1781H10.2157C3.85033 69.1781 -0.616542 62.9328 1.44367 56.937C3.42535 51.1721 6.39556 46.7006 8.41882 39.1665" stroke="#222222" stroke-width="1.5" stroke-linecap="round" stroke-linejoin="round"/>
<path d="M43.2902 53.7173H4.75129C4.25703 54.7705 3.79048 55.8329 3.37474 56.96C1.49006 62.0274 5.57353 67.3027 11.3985 67.3027H36.6476C42.4725 67.3027 46.5514 62.0274 44.6713 56.96C44.251 55.8375 43.7844 54.7705 43.2902 53.7173Z" stroke="#222222" stroke-width="1.5" stroke-linecap="round" stroke-linejoin="round"/>
<path d="M8.36324 18.8879C6.19216 11.9589 2.98637 9.45062 1.10169 4.36477C0.468844 2.64638 1.74377 0.817139 3.58226 0.817139H44.4585C46.297 0.817139 47.5765 2.64638 46.9391 4.36477C45.059 9.446 41.8624 11.9404 39.6867 18.8601" stroke="#222222" stroke-width="1.5" stroke-linecap="round" stroke-linejoin="round"/>
<path d="M24.0227 32.6072C25.7269 32.6072 27.1084 31.2257 27.1084 29.5215C27.1084 27.8173 25.7269 26.4358 24.0227 26.4358C22.3185 26.4358 20.937 27.8173 20.937 29.5215C20.937 31.2257 22.3185 32.6072 24.0227 32.6072Z" stroke="#222222" stroke-width="1.5" stroke-linecap="round" stroke-linejoin="round"/>
<path d="M27.104 29.5215H39.2574" stroke="#222222" stroke-width="1.5" stroke-linecap="round" stroke-linejoin="round"/>
<path d="M20.9373 29.5215H8.31738" stroke="#222222" stroke-width="1.5" stroke-linecap="round" stroke-linejoin="round"/>
</svg>
